# xmcd
#
# Track frame offsets:
#	150
#	12625
#	20901
#	33093
#	42954
#	55034
#	67420
#	80001
#	89577
#	97905
#	107572
#	117119
#	131437
#	145170
#	158385
#	172348
#	183268
#	190230
#	202369
#	207379
#	219240
#	233396
#	246456
#	259004
#	260283
#	272577
#	285051
#	297692
#	310475
#	322297
#	334184
#	345980
#
# Disc length: 4769 seconds
#
# Revision: 1
# Processed by: cddbd v1.5.2PL0 Copyright (c) Steve Scherf et al.
# Submitted via: audiograbber 1.83.01
#
DISCID=e5129f20
DTITLE=Jerry Lee Lewis - Jerry Lee Lewis At Sun Records [CD 1)
DYEAR=2015
DGENRE=Rock and Roll
TTITLE0=Crazy Arms (1) [master] [mono]
TTITLE1=End Of The Road [master] [mono]
TTITLE2=Born To Lose [mono]
TTITLE3=You're The Only Star (In My Blue Heaven) (1.1) [mono]
TTITLE4=You're The Only Star (In My Blue Heaven) (1.2) [mono]
TTITLE5=Deep Elem Blues (1) [mono]
TTITLE6=Deep Elem Blues (2) [mono]
TTITLE7=Silver Threads Among The Gold [mono]
TTITLE8=Crawdad Song [mono]
TTITLE9=Singing The Blues [mono]
TTITLE10=Honey Hush [mono]
TTITLE11=Goodnight Irene (1) [mono]
TTITLE12=Goodnight Irene (2) [mono]
TTITLE13=Goodnight Irene (3) [undubbed master] [mono]
TTITLE14=Goodnight Irene (4) [mono]
TTITLE15=The Marines' Hymn [mono]
TTITLE16=Dixie [mono]
TTITLE17=It'll Be Me (1.1) [chat and take] [mono]
TTITLE18=It'll Be Me (1.2) [4 false starts] [mono]
TTITLE19=It'll Be Me (1.3) [mono]
TTITLE20=It'll Be Me (1.4) [chat, take, chat] [mono]
TTITLE21=It'll Be Me (1.5) [mono]
TTITLE22=It'll Be Me (1.6) [single master] [mono]
TTITLE23=Whole Lot Of Shakin' Going On (1.1) [fragment] [mono]
TTITLE24=Whole Lot Of Shakin' Going On (1.2) [mono]
TTITLE25=Whole Lot Of Shakin' Going On (1.3) [mono]
TTITLE26=Whole Lot Of Shakin' Going On (1.4) [mono]
TTITLE27=Whole Lot Of Shakin' Going On (1.5) [mono]
TTITLE28=Ole Pal Of Yesterday (1) [mono]
TTITLE29=Ole Pal Of Yesterday (2) [mono]
TTITLE30=Ole Pal Of Yesterday (3) [mono]
TTITLE31=Ole Pal Of Yesterday (4) [mono]
EXTD=
EXTT0=
EXTT1=
EXTT2=
EXTT3=
EXTT4=
EXTT5=
EXTT6=
EXTT7=
EXTT8=
EXTT9=
EXTT10=
EXTT11=
EXTT12=
EXTT13=
EXTT14=
EXTT15=
EXTT16=
EXTT17=
EXTT18=
EXTT19=
EXTT20=
EXTT21=
EXTT22=
EXTT23=
EXTT24=
EXTT25=
EXTT26=
EXTT27=
EXTT28=
EXTT29=
EXTT30=
EXTT31=
PLAYORDER=
